<svg xmlns="http://www.w3.org/2000/svg" width="32" height="32" viewBox="0 0 32 32" fill="none">
  <rect x="0" y="0" width="32" height="32" rx="8" fill="#008573"></rect>
  <rect x="0" y="0" width="32" height="32" rx="8" fill="url(#g)" opacity="0.6"></rect>
  <g transform="translate(8.327 4)">
    <path fill="#ffffff" fill-opacity="0.92" d="M 14.142 7.75 C 14.368 7.611 14.578 7.449 14.77 7.266 C 14.807 7.23 14.842 7.195 14.877 7.159 C 15.011 7.022 15.135 6.876 15.248 6.721 C 15.362 6.564 15.461 6.395 15.543 6.218 C 15.655 5.977 15.723 5.718 15.746 5.453 C 15.815 4.548 15.279 3.648 14.083 2.922 L 9.268 0 L 3.655 5.378 L 0 8.88 L 5.069 11.956 C 5.881 12.453 6.813 12.718 7.765 12.722 C 8.928 12.722 10.042 12.311 10.865 11.523 C 11.759 10.666 12.056 9.557 11.504 8.635 C 11.415 8.486 11.308 8.347 11.187 8.221 C 11.483 8.287 11.785 8.321 12.089 8.322 L 12.096 8.322 C 12.591 8.322 13.081 8.231 13.543 8.051 C 13.751 7.969 13.952 7.868 14.142 7.75 Z M 9.449 10.542 C 8.547 11.406 7.097 11.533 5.916 10.817 L 2.409 8.688 L 5.557 5.671 L 9.123 7.836 C 10.408 8.615 10.338 9.69 9.449 10.542 Z M 9.866 6.704 L 6.568 4.702 L 9.575 1.82 L 12.813 3.785 C 14.023 4.519 14.181 5.512 13.305 6.352 C 12.851 6.782 12.268 7.05 11.645 7.114 C 11.023 7.177 10.398 7.033 9.866 6.704 Z M 11.26 11.932 C 10.346 12.807 9.105 13.29 7.765 13.29 C 6.709 13.285 5.674 12.992 4.773 12.441 L 0 9.547 L 0 10.699 L 5.069 13.775 C 5.881 14.272 6.813 14.537 7.765 14.541 C 8.928 14.541 10.042 14.131 10.865 13.343 C 11.466 12.766 11.798 12.077 11.783 11.406 L 11.783 11.321 C 11.63 11.543 11.454 11.748 11.26 11.935 Z M 11.26 13.752 C 10.346 14.627 9.105 15.109 7.765 15.109 C 6.709 15.105 5.674 14.812 4.773 14.26 L 0 11.367 L 0 12.519 L 5.069 15.595 C 5.881 16.092 6.813 16.357 7.765 16.361 C 8.928 16.361 10.042 15.95 10.865 15.162 C 11.466 14.586 11.798 13.896 11.783 13.225 L 11.783 13.142 C 11.63 13.363 11.454 13.568 11.26 13.755 Z M 11.26 15.572 C 10.346 16.448 9.105 16.93 7.765 16.93 C 6.709 16.926 5.674 16.632 4.773 16.081 L 0 13.186 L 0 14.338 L 5.069 17.414 C 5.881 17.911 6.813 18.176 7.765 18.181 C 8.928 18.181 10.042 17.769 10.865 16.982 C 11.466 16.406 11.798 15.715 11.783 15.045 L 11.783 14.961 C 11.63 15.183 11.454 15.388 11.26 15.574 Z"></path>
  </g>
  <defs>
    <linearGradient id="g" x1="0" y1="0" x2="0" y2="32" gradientUnits="userSpaceOnUse">
      <stop offset="0" stop-color="#ffffff" stop-opacity="0"></stop>
      <stop offset="1" stop-color="#ffffff" stop-opacity="0.12"></stop>
    </linearGradient>
  </defs>
</svg>